REM DIRINDEX 1\2\3,1\2\4,1\2\5,1\2\6
REM DIRNAME folder01,folder02,folder03,folder04,folder05,folder06
TITLE ""
FILE "072 072.mp3" MP3
  TRACK 01 AUDIO
    TITLE "0:"
    INDEX 01 00:00:00
  TRACK 02 AUDIO
    TITLE "3:cjc157_2689"
    INDEX 01 00:00:15
  TRACK 03 AUDIO
    TITLE "0:"
    INDEX 01 00:01:17
  TRACK 04 AUDIO
    TITLE "4:cjc157_2690"
    INDEX 01 00:01:62
  TRACK 05 AUDIO
    TITLE "0:"
    INDEX 01 00:02:65
  TRACK 06 AUDIO
    TITLE "5:cjc157_2691"
    INDEX 01 00:03:35
  TRACK 07 AUDIO
    TITLE "0:"
    INDEX 01 00:05:30
  TRACK 08 AUDIO
    TITLE "5:cjc157_2692"
    INDEX 01 00:06:04
  TRACK 09 AUDIO
    TITLE "0:"
    INDEX 01 00:08:19
  TRACK 10 AUDIO
    TITLE "3:cjc157_2693"
    INDEX 01 00:08:64
  TRACK 11 AUDIO
    TITLE "0:"
    INDEX 01 00:09:69
  TRACK 12 AUDIO
    TITLE "4:cjc157_2694"
    INDEX 01 00:10:39
  TRACK 13 AUDIO
    TITLE "0:"
    INDEX 01 00:11:50
  TRACK 14 AUDIO
    TITLE "5:cjc157_2695"
    INDEX 01 00:12:16
  TRACK 15 AUDIO
    TITLE "0:"
    INDEX 01 00:14:43
  TRACK 16 AUDIO
    TITLE "5:cjc157_2696"
    INDEX 01 00:15:19
  TRACK 17 AUDIO
    TITLE "0:"
    INDEX 01 00:17:61
  TRACK 18 AUDIO
    TITLE "5:cjc157_2697"
    INDEX 01 00:18:31
  TRACK 19 AUDIO
    TITLE "0:"
    INDEX 01 00:21:35
  TRACK 20 AUDIO
    TITLE "3:cjc157_2698"
    INDEX 01 00:22:05
  TRACK 21 AUDIO
    TITLE "0:"
    INDEX 01 00:23:10
  TRACK 22 AUDIO
    TITLE "4:cjc157_2699"
    INDEX 01 00:23:57
  TRACK 23 AUDIO
    TITLE "0:"
    INDEX 01 00:24:57
  TRACK 24 AUDIO
    TITLE "5:cjc157_2700"
    INDEX 01 00:25:23
  TRACK 25 AUDIO
    TITLE "0:"
    INDEX 01 00:27:08
  TRACK 26 AUDIO
    TITLE "5:cjc157_2701"
    INDEX 01 00:27:47
  TRACK 27 AUDIO
    TITLE "0:"
    INDEX 01 00:29:36
  TRACK 28 AUDIO
    TITLE "3:cjc157_2702"
    INDEX 01 00:30:10
  TRACK 29 AUDIO
    TITLE "0:"
    INDEX 01 00:31:27
  TRACK 30 AUDIO
    TITLE "4:cjc157_2703"
    INDEX 01 00:32:00
  TRACK 31 AUDIO
    TITLE "0:"
    INDEX 01 00:32:74
  TRACK 32 AUDIO
    TITLE "5:cjc157_2704"
    INDEX 01 00:33:48
  TRACK 33 AUDIO
    TITLE "0:"
    INDEX 01 00:36:42
  TRACK 34 AUDIO
    TITLE "5:cjc157_2705"
    INDEX 01 00:37:16
  TRACK 35 AUDIO
    TITLE "0:"
    INDEX 01 00:38:73
  TRACK 36 AUDIO
    TITLE "3:cjc157_2706"
    INDEX 01 00:39:43
  TRACK 37 AUDIO
    TITLE "0:"
    INDEX 01 00:40:48
  TRACK 38 AUDIO
    TITLE "4:cjc157_2707"
    INDEX 01 00:41:18
  TRACK 39 AUDIO
    TITLE "0:"
    INDEX 01 00:42:29
  TRACK 40 AUDIO
    TITLE "5:cjc157_2708"
    INDEX 01 00:42:72
  TRACK 41 AUDIO
    TITLE "0:"
    INDEX 01 00:45:14
  TRACK 42 AUDIO
    TITLE "5:cjc157_2709"
    INDEX 01 00:45:61
  TRACK 43 AUDIO
    TITLE "0:"
    INDEX 01 00:47:30
  TRACK 44 AUDIO
    TITLE "5:cjc157_2710"
    INDEX 01 00:48:02
  TRACK 45 AUDIO
    TITLE "0:"
    INDEX 01 00:49:69
  TRACK 46 AUDIO
    TITLE "3:cjc157_2711"
    INDEX 01 00:50:39
  TRACK 47 AUDIO
    TITLE "0:"
    INDEX 01 00:51:42
  TRACK 48 AUDIO
    TITLE "4:cjc157_2712"
    INDEX 01 00:52:16
  TRACK 49 AUDIO
    TITLE "0:"
    INDEX 01 00:54:72
  TRACK 50 AUDIO
    TITLE "5:cjc157_2713"
    INDEX 01 00:55:40
  TRACK 51 AUDIO
    TITLE "0:"
    INDEX 01 00:57:66
  TRACK 52 AUDIO
    TITLE "5:cjc157_2714"
    INDEX 01 00:58:32
  TRACK 53 AUDIO
    TITLE "0:"
    INDEX 01 01:00:59
  TRACK 54 AUDIO
    TITLE "3:cjc157_2715"
    INDEX 01 01:01:33
  TRACK 55 AUDIO
    TITLE "0:"
    INDEX 01 01:02:24
  TRACK 56 AUDIO
    TITLE "4:cjc157_2716"
    INDEX 01 01:02:69
  TRACK 57 AUDIO
    TITLE "0:"
    INDEX 01 01:05:73
  TRACK 58 AUDIO
    TITLE "5:cjc157_2717"
    INDEX 01 01:06:45
  TRACK 59 AUDIO
    TITLE "0:"
    INDEX 01 01:08:68
  TRACK 60 AUDIO
    TITLE "3:cjc157_2718"
    INDEX 01 01:09:44
  TRACK 61 AUDIO
    TITLE "0:"
    INDEX 01 01:10:33
  TRACK 62 AUDIO
    TITLE "4:cjc157_2719"
    INDEX 01 01:11:07
  TRACK 63 AUDIO
    TITLE "0:"
    INDEX 01 01:12:21
  TRACK 64 AUDIO
    TITLE "5:cjc157_2720"
    INDEX 01 01:12:66
  TRACK 65 AUDIO
    TITLE "0:"
    INDEX 01 01:15:56
  TRACK 66 AUDIO
    TITLE "3:cjc157_2721"
    INDEX 01 01:16:30
  TRACK 67 AUDIO
    TITLE "0:"
    INDEX 01 01:17:35
  TRACK 68 AUDIO
    TITLE "4:cjc157_2722"
    INDEX 01 01:18:06
  TRACK 69 AUDIO
    TITLE "0:"
    INDEX 01 01:19:23
  TRACK 70 AUDIO
    TITLE "5:cjc157_2723"
    INDEX 01 01:19:66
  TRACK 71 AUDIO
    TITLE "0:"
    INDEX 01 01:22:50
  TRACK 72 AUDIO
    TITLE "5:cjc157_2724"
    INDEX 01 01:23:20
  TRACK 73 AUDIO
    TITLE "0:"
    INDEX 01 01:25:00
  TRACK 74 AUDIO
    TITLE "3:cjc157_2725"
    INDEX 01 01:25:51
  TRACK 75 AUDIO
    TITLE "0:"
    INDEX 01 01:26:40
  TRACK 76 AUDIO
    TITLE "4:cjc157_2726"
    INDEX 01 01:27:12
  TRACK 77 AUDIO
    TITLE "0:"
    INDEX 01 01:28:06
  TRACK 78 AUDIO
    TITLE "5:cjc157_2727"
    INDEX 01 01:28:69
  TRACK 79 AUDIO
    TITLE "0:"
    INDEX 01 01:30:44
